<mxfile host="app.diagrams.net" agent="Mozilla/5.0 (Windows NT 10.0; Win64; x64) AppleWebKit/537.36 (KHTML, like Gecko) Chrome/132.0.0.0 Safari/537.36" version="26.0.10">
  <diagram name="Página-1" id="GHWC0uuzu82_nOsLsiK1">
    <mxGraphModel dx="2261" dy="1907" grid="1" gridSize="10" guides="1" tooltips="1" connect="1" arrows="1" fold="1" page="1" pageScale="1" pageWidth="827" pageHeight="1169" math="0" shadow="0">
      <root>
        <mxCell id="0" />
        <mxCell id="1" parent="0" />
        <mxCell id="f_cCSmvUe50bdIdc8V6U-1" value="&lt;b&gt;PUBLICACIONES&lt;/b&gt;" style="rounded=0;whiteSpace=wrap;html=1;fillColor=#d5e8d4;strokeColor=#82b366;" vertex="1" parent="1">
          <mxGeometry x="156" y="250" width="120" height="60" as="geometry" />
        </mxCell>
        <mxCell id="f_cCSmvUe50bdIdc8V6U-2" value="&lt;b&gt;RESPUESTAS&lt;/b&gt;" style="rounded=0;whiteSpace=wrap;html=1;fillColor=#d5e8d4;strokeColor=#82b366;" vertex="1" parent="1">
          <mxGeometry x="590" y="245" width="120" height="60" as="geometry" />
        </mxCell>
        <mxCell id="f_cCSmvUe50bdIdc8V6U-3" value="&lt;b&gt;USUARIOS&lt;/b&gt;" style="rounded=0;whiteSpace=wrap;html=1;fillColor=#d5e8d4;strokeColor=#82b366;" vertex="1" parent="1">
          <mxGeometry x="370" y="30" width="120" height="60" as="geometry" />
        </mxCell>
        <mxCell id="f_cCSmvUe50bdIdc8V6U-5" value="PUBLICAN" style="rhombus;whiteSpace=wrap;html=1;fillColor=#dae8fc;strokeColor=#6c8ebf;" vertex="1" parent="1">
          <mxGeometry x="375" y="130" width="110" height="60" as="geometry" />
        </mxCell>
        <mxCell id="f_cCSmvUe50bdIdc8V6U-7" value="NOMBRE" style="ellipse;whiteSpace=wrap;html=1;fillColor=#fff2cc;strokeColor=#d6b656;" vertex="1" parent="1">
          <mxGeometry x="450" y="-90" width="90" height="50" as="geometry" />
        </mxCell>
        <mxCell id="f_cCSmvUe50bdIdc8V6U-8" value="NOMBRE_USUARIO" style="ellipse;whiteSpace=wrap;html=1;fillColor=#fff2cc;strokeColor=#d6b656;" vertex="1" parent="1">
          <mxGeometry x="294" y="-100" width="130" height="50" as="geometry" />
        </mxCell>
        <mxCell id="f_cCSmvUe50bdIdc8V6U-9" value="CONTRASEÑA" style="ellipse;whiteSpace=wrap;html=1;fillColor=#fff2cc;strokeColor=#d6b656;" vertex="1" parent="1">
          <mxGeometry x="200" y="-40" width="120" height="50" as="geometry" />
        </mxCell>
        <mxCell id="f_cCSmvUe50bdIdc8V6U-10" value="" style="endArrow=none;html=1;rounded=0;entryX=0.5;entryY=0;entryDx=0;entryDy=0;" edge="1" parent="1" source="f_cCSmvUe50bdIdc8V6U-21" target="f_cCSmvUe50bdIdc8V6U-3">
          <mxGeometry width="50" height="50" relative="1" as="geometry">
            <mxPoint x="550" y="-15" as="sourcePoint" />
            <mxPoint x="880" y="120" as="targetPoint" />
          </mxGeometry>
        </mxCell>
        <mxCell id="f_cCSmvUe50bdIdc8V6U-11" value="" style="endArrow=none;html=1;rounded=0;exitX=0.5;exitY=1;exitDx=0;exitDy=0;entryX=0.5;entryY=0;entryDx=0;entryDy=0;" edge="1" parent="1" source="f_cCSmvUe50bdIdc8V6U-7" target="f_cCSmvUe50bdIdc8V6U-3">
          <mxGeometry width="50" height="50" relative="1" as="geometry">
            <mxPoint x="346" y="-16" as="sourcePoint" />
            <mxPoint x="380" y="70" as="targetPoint" />
          </mxGeometry>
        </mxCell>
        <mxCell id="f_cCSmvUe50bdIdc8V6U-12" value="" style="endArrow=none;html=1;rounded=0;entryX=0.5;entryY=0;entryDx=0;entryDy=0;" edge="1" parent="1" source="f_cCSmvUe50bdIdc8V6U-8" target="f_cCSmvUe50bdIdc8V6U-3">
          <mxGeometry width="50" height="50" relative="1" as="geometry">
            <mxPoint x="300" y="35" as="sourcePoint" />
            <mxPoint x="340" y="70" as="targetPoint" />
          </mxGeometry>
        </mxCell>
        <mxCell id="f_cCSmvUe50bdIdc8V6U-13" value="" style="endArrow=none;html=1;rounded=0;entryX=0.5;entryY=0;entryDx=0;entryDy=0;" edge="1" parent="1" source="f_cCSmvUe50bdIdc8V6U-9" target="f_cCSmvUe50bdIdc8V6U-3">
          <mxGeometry width="50" height="50" relative="1" as="geometry">
            <mxPoint x="290" y="92" as="sourcePoint" />
            <mxPoint x="380" y="70" as="targetPoint" />
          </mxGeometry>
        </mxCell>
        <mxCell id="f_cCSmvUe50bdIdc8V6U-14" value="" style="endArrow=none;html=1;rounded=0;" edge="1" parent="1" source="f_cCSmvUe50bdIdc8V6U-5" target="f_cCSmvUe50bdIdc8V6U-3">
          <mxGeometry width="50" height="50" relative="1" as="geometry">
            <mxPoint x="390" y="180" as="sourcePoint" />
            <mxPoint x="440" y="130" as="targetPoint" />
          </mxGeometry>
        </mxCell>
        <mxCell id="f_cCSmvUe50bdIdc8V6U-15" value="" style="endArrow=none;html=1;rounded=0;" edge="1" parent="1" source="f_cCSmvUe50bdIdc8V6U-1" target="f_cCSmvUe50bdIdc8V6U-5">
          <mxGeometry width="50" height="50" relative="1" as="geometry">
            <mxPoint x="326" y="190" as="sourcePoint" />
            <mxPoint x="342.5402843601896" y="187.20379146919413" as="targetPoint" />
          </mxGeometry>
        </mxCell>
        <mxCell id="f_cCSmvUe50bdIdc8V6U-16" value="" style="endArrow=none;html=1;rounded=0;" edge="1" parent="1" source="f_cCSmvUe50bdIdc8V6U-2" target="f_cCSmvUe50bdIdc8V6U-5">
          <mxGeometry width="50" height="50" relative="1" as="geometry">
            <mxPoint x="410" y="290" as="sourcePoint" />
            <mxPoint x="460" y="240" as="targetPoint" />
          </mxGeometry>
        </mxCell>
        <mxCell id="f_cCSmvUe50bdIdc8V6U-18" value="TÍTULO" style="ellipse;whiteSpace=wrap;html=1;fillColor=#fff2cc;strokeColor=#d6b656;" vertex="1" parent="1">
          <mxGeometry x="-10" y="230" width="120" height="50" as="geometry" />
        </mxCell>
        <mxCell id="f_cCSmvUe50bdIdc8V6U-19" value="CONTENIDO" style="ellipse;whiteSpace=wrap;html=1;fillColor=#fff2cc;strokeColor=#d6b656;" vertex="1" parent="1">
          <mxGeometry x="6" y="320" width="120" height="50" as="geometry" />
        </mxCell>
        <mxCell id="f_cCSmvUe50bdIdc8V6U-20" value="AUTOR_ID (FK)" style="ellipse;whiteSpace=wrap;html=1;fillColor=#fff2cc;strokeColor=#d6b656;dashed=1;dashPattern=12 12;" vertex="1" parent="1">
          <mxGeometry x="86" y="380" width="120" height="50" as="geometry" />
        </mxCell>
        <mxCell id="f_cCSmvUe50bdIdc8V6U-21" value="ID" style="ellipse;shape=doubleEllipse;margin=3;whiteSpace=wrap;html=1;align=center;fillColor=#fff2cc;strokeColor=#d6b656;" vertex="1" parent="1">
          <mxGeometry x="530" y="-30" width="120" height="50" as="geometry" />
        </mxCell>
        <mxCell id="f_cCSmvUe50bdIdc8V6U-22" value="ID" style="ellipse;shape=doubleEllipse;margin=3;whiteSpace=wrap;html=1;align=center;fillColor=#fff2cc;strokeColor=#d6b656;" vertex="1" parent="1">
          <mxGeometry x="66" y="170" width="120" height="50" as="geometry" />
        </mxCell>
        <mxCell id="f_cCSmvUe50bdIdc8V6U-23" value="FECHA_CREACIÓN" style="ellipse;whiteSpace=wrap;html=1;fillColor=#fff2cc;strokeColor=#d6b656;" vertex="1" parent="1">
          <mxGeometry x="226" y="360" width="130" height="60" as="geometry" />
        </mxCell>
        <mxCell id="f_cCSmvUe50bdIdc8V6U-24" value="" style="endArrow=none;html=1;rounded=0;" edge="1" parent="1" source="f_cCSmvUe50bdIdc8V6U-22" target="f_cCSmvUe50bdIdc8V6U-1">
          <mxGeometry width="50" height="50" relative="1" as="geometry">
            <mxPoint x="26" y="160" as="sourcePoint" />
            <mxPoint x="76" y="110" as="targetPoint" />
          </mxGeometry>
        </mxCell>
        <mxCell id="f_cCSmvUe50bdIdc8V6U-25" value="" style="endArrow=none;html=1;rounded=0;" edge="1" parent="1" source="f_cCSmvUe50bdIdc8V6U-18" target="f_cCSmvUe50bdIdc8V6U-1">
          <mxGeometry width="50" height="50" relative="1" as="geometry">
            <mxPoint x="160" y="228" as="sourcePoint" />
            <mxPoint x="194" y="260" as="targetPoint" />
          </mxGeometry>
        </mxCell>
        <mxCell id="f_cCSmvUe50bdIdc8V6U-26" value="" style="endArrow=none;html=1;rounded=0;" edge="1" parent="1" source="f_cCSmvUe50bdIdc8V6U-19" target="f_cCSmvUe50bdIdc8V6U-1">
          <mxGeometry width="50" height="50" relative="1" as="geometry">
            <mxPoint x="117" y="273" as="sourcePoint" />
            <mxPoint x="166" y="281" as="targetPoint" />
          </mxGeometry>
        </mxCell>
        <mxCell id="f_cCSmvUe50bdIdc8V6U-27" value="" style="endArrow=none;html=1;rounded=0;" edge="1" parent="1" source="f_cCSmvUe50bdIdc8V6U-20" target="f_cCSmvUe50bdIdc8V6U-1">
          <mxGeometry width="50" height="50" relative="1" as="geometry">
            <mxPoint x="118" y="337" as="sourcePoint" />
            <mxPoint x="166" y="316" as="targetPoint" />
          </mxGeometry>
        </mxCell>
        <mxCell id="f_cCSmvUe50bdIdc8V6U-28" value="" style="endArrow=none;html=1;rounded=0;" edge="1" parent="1" source="f_cCSmvUe50bdIdc8V6U-23" target="f_cCSmvUe50bdIdc8V6U-1">
          <mxGeometry width="50" height="50" relative="1" as="geometry">
            <mxPoint x="170" y="391" as="sourcePoint" />
            <mxPoint x="209" y="320" as="targetPoint" />
          </mxGeometry>
        </mxCell>
        <mxCell id="f_cCSmvUe50bdIdc8V6U-29" value="ID" style="ellipse;shape=doubleEllipse;margin=3;whiteSpace=wrap;html=1;align=center;fillColor=#fff2cc;strokeColor=#d6b656;" vertex="1" parent="1">
          <mxGeometry x="630" y="145" width="120" height="50" as="geometry" />
        </mxCell>
        <mxCell id="f_cCSmvUe50bdIdc8V6U-30" value="AUTOR_ID (FK)" style="ellipse;whiteSpace=wrap;html=1;fillColor=#fff2cc;strokeColor=#d6b656;dashed=1;dashPattern=12 12;" vertex="1" parent="1">
          <mxGeometry x="757" y="195" width="120" height="50" as="geometry" />
        </mxCell>
        <mxCell id="f_cCSmvUe50bdIdc8V6U-31" value="PUBLICACIÓN_ID (FK)" style="ellipse;whiteSpace=wrap;html=1;fillColor=#fff2cc;strokeColor=#d6b656;dashed=1;dashPattern=12 12;" vertex="1" parent="1">
          <mxGeometry x="750" y="275" width="120" height="50" as="geometry" />
        </mxCell>
        <mxCell id="f_cCSmvUe50bdIdc8V6U-32" value="FECHA_CREACIÓN" style="ellipse;whiteSpace=wrap;html=1;fillColor=#fff2cc;strokeColor=#d6b656;" vertex="1" parent="1">
          <mxGeometry x="710" y="355" width="130" height="60" as="geometry" />
        </mxCell>
        <mxCell id="f_cCSmvUe50bdIdc8V6U-33" value="CONTENIDO" style="ellipse;whiteSpace=wrap;html=1;fillColor=#fff2cc;strokeColor=#d6b656;" vertex="1" parent="1">
          <mxGeometry x="550" y="355" width="120" height="50" as="geometry" />
        </mxCell>
        <mxCell id="f_cCSmvUe50bdIdc8V6U-34" value="" style="endArrow=none;html=1;rounded=0;" edge="1" parent="1" source="f_cCSmvUe50bdIdc8V6U-33" target="f_cCSmvUe50bdIdc8V6U-2">
          <mxGeometry width="50" height="50" relative="1" as="geometry">
            <mxPoint x="396" y="366" as="sourcePoint" />
            <mxPoint x="360" y="315" as="targetPoint" />
          </mxGeometry>
        </mxCell>
        <mxCell id="f_cCSmvUe50bdIdc8V6U-35" value="" style="endArrow=none;html=1;rounded=0;" edge="1" parent="1" source="f_cCSmvUe50bdIdc8V6U-32" target="f_cCSmvUe50bdIdc8V6U-2">
          <mxGeometry width="50" height="50" relative="1" as="geometry">
            <mxPoint x="629" y="365" as="sourcePoint" />
            <mxPoint x="649" y="315" as="targetPoint" />
          </mxGeometry>
        </mxCell>
        <mxCell id="f_cCSmvUe50bdIdc8V6U-36" value="" style="endArrow=none;html=1;rounded=0;" edge="1" parent="1" source="f_cCSmvUe50bdIdc8V6U-31" target="f_cCSmvUe50bdIdc8V6U-2">
          <mxGeometry width="50" height="50" relative="1" as="geometry">
            <mxPoint x="755" y="368" as="sourcePoint" />
            <mxPoint x="694" y="315" as="targetPoint" />
          </mxGeometry>
        </mxCell>
        <mxCell id="f_cCSmvUe50bdIdc8V6U-37" value="" style="endArrow=none;html=1;rounded=0;" edge="1" parent="1" source="f_cCSmvUe50bdIdc8V6U-30" target="f_cCSmvUe50bdIdc8V6U-2">
          <mxGeometry width="50" height="50" relative="1" as="geometry">
            <mxPoint x="764" y="302" as="sourcePoint" />
            <mxPoint x="720" y="294" as="targetPoint" />
          </mxGeometry>
        </mxCell>
        <mxCell id="f_cCSmvUe50bdIdc8V6U-38" value="" style="endArrow=none;html=1;rounded=0;" edge="1" parent="1" source="f_cCSmvUe50bdIdc8V6U-29" target="f_cCSmvUe50bdIdc8V6U-2">
          <mxGeometry width="50" height="50" relative="1" as="geometry">
            <mxPoint x="780" y="245" as="sourcePoint" />
            <mxPoint x="720" y="265" as="targetPoint" />
          </mxGeometry>
        </mxCell>
        <mxCell id="f_cCSmvUe50bdIdc8V6U-39" value="TIENEN" style="rhombus;whiteSpace=wrap;html=1;fillColor=#dae8fc;strokeColor=#6c8ebf;" vertex="1" parent="1">
          <mxGeometry x="380" y="250" width="110" height="60" as="geometry" />
        </mxCell>
        <mxCell id="f_cCSmvUe50bdIdc8V6U-40" value="" style="endArrow=none;html=1;rounded=0;" edge="1" parent="1" source="f_cCSmvUe50bdIdc8V6U-1" target="f_cCSmvUe50bdIdc8V6U-39">
          <mxGeometry width="50" height="50" relative="1" as="geometry">
            <mxPoint x="280" y="260" as="sourcePoint" />
            <mxPoint x="413" y="185" as="targetPoint" />
          </mxGeometry>
        </mxCell>
        <mxCell id="f_cCSmvUe50bdIdc8V6U-41" value="" style="endArrow=none;html=1;rounded=0;" edge="1" parent="1" source="f_cCSmvUe50bdIdc8V6U-2" target="f_cCSmvUe50bdIdc8V6U-39">
          <mxGeometry width="50" height="50" relative="1" as="geometry">
            <mxPoint x="286" y="290" as="sourcePoint" />
            <mxPoint x="390" y="290" as="targetPoint" />
          </mxGeometry>
        </mxCell>
        <mxCell id="f_cCSmvUe50bdIdc8V6U-42" value="(1,n)" style="text;strokeColor=none;fillColor=none;spacingLeft=4;spacingRight=4;overflow=hidden;rotatable=0;points=[[0,0.5],[1,0.5]];portConstraint=eastwest;fontSize=12;whiteSpace=wrap;html=1;" vertex="1" parent="1">
          <mxGeometry x="280" y="195" width="40" height="30" as="geometry" />
        </mxCell>
        <mxCell id="f_cCSmvUe50bdIdc8V6U-43" value="(1,n)" style="text;strokeColor=none;fillColor=none;spacingLeft=4;spacingRight=4;overflow=hidden;rotatable=0;points=[[0,0.5],[1,0.5]];portConstraint=eastwest;fontSize=12;whiteSpace=wrap;html=1;" vertex="1" parent="1">
          <mxGeometry x="530" y="180" width="40" height="30" as="geometry" />
        </mxCell>
        <mxCell id="f_cCSmvUe50bdIdc8V6U-44" value="(1,n)" style="text;strokeColor=none;fillColor=none;spacingLeft=4;spacingRight=4;overflow=hidden;rotatable=0;points=[[0,0.5],[1,0.5]];portConstraint=eastwest;fontSize=12;whiteSpace=wrap;html=1;" vertex="1" parent="1">
          <mxGeometry x="430" y="90" width="40" height="30" as="geometry" />
        </mxCell>
        <mxCell id="f_cCSmvUe50bdIdc8V6U-45" value="(1,n)" style="text;strokeColor=none;fillColor=none;spacingLeft=4;spacingRight=4;overflow=hidden;rotatable=0;points=[[0,0.5],[1,0.5]];portConstraint=eastwest;fontSize=12;whiteSpace=wrap;html=1;" vertex="1" parent="1">
          <mxGeometry x="510" y="250" width="40" height="30" as="geometry" />
        </mxCell>
        <mxCell id="f_cCSmvUe50bdIdc8V6U-46" value="(1,n)" style="text;strokeColor=none;fillColor=none;spacingLeft=4;spacingRight=4;overflow=hidden;rotatable=0;points=[[0,0.5],[1,0.5]];portConstraint=eastwest;fontSize=12;whiteSpace=wrap;html=1;" vertex="1" parent="1">
          <mxGeometry x="316" y="250" width="40" height="30" as="geometry" />
        </mxCell>
      </root>
    </mxGraphModel>
  </diagram>
</mxfile>
